<svg xmlns="http://www.w3.org/2000/svg" viewBox="0 0 320 200">
  <defs>
    <linearGradient id="bg" x1="0" y1="0" x2="1" y2="1">
      <stop offset="0%" stop-color="#1a1f4f"/>
      <stop offset="100%" stop-color="#3f2a8a"/>
    </linearGradient>
    <linearGradient id="hair" x1="0" y1="0" x2="0" y2="1">
      <stop offset="0%" stop-color="#8ff3ff"/>
      <stop offset="100%" stop-color="#3ea5ff"/>
    </linearGradient>
  </defs>
  <rect width="320" height="200" rx="18" fill="url(#bg)"/>
  <circle cx="160" cy="95" r="46" fill="#ffe0d1"/>
  <path d="M112 86c8-34 34-50 48-50 20 0 42 16 52 46-18-10-30-14-50-14s-34 6-50 18z" fill="url(#hair)"/>
  <ellipse cx="144" cy="98" rx="6" ry="8" fill="#2b2156"/>
  <ellipse cx="178" cy="98" rx="6" ry="8" fill="#2b2156"/>
  <path d="M146 119c8 8 20 8 28 0" stroke="#d45f7f" stroke-width="4" fill="none" stroke-linecap="round"/>
  <path d="M120 160c8-18 24-28 40-28s32 10 40 28" fill="#5de0ff"/>
  <text x="18" y="30" fill="#b9f7ff" font-family="Arial" font-size="18" font-weight="700">ANIME HERO</text>
</svg>
